<svg id="Layer_1" data-name="Layer 1" xmlns="http://www.w3.org/2000/svg" viewBox="0 0 270.76 298.52"><defs><style>.cls-1{fill:#d8d9d9;}.cls-2{fill:#c7c8c9;}.cls-3{fill:#bdbec0;}.cls-4{fill:#e9e9e9;}</style></defs><path class="cls-1" d="M188.08,558.62A43.75,43.75,0,0,1,168,561.88a26.67,26.67,0,0,1-11.42-3.17,24.37,24.37,0,0,1-5.55-4.28l.87-250.08a47.1,47.1,0,0,0,6,2,52.9,52.9,0,0,0,11.87,1.59,81.51,81.51,0,0,0,19.57-1.83Q188.7,432.35,188.08,558.62Z" transform="translate(-151.03 -281.1)"/><path class="cls-2" d="M231.23,282.39l-41.92,23.7A49.38,49.38,0,0,1,179,308a64,64,0,0,1-9.31-.1,54.71,54.71,0,0,1-11.4-1.39,41.68,41.68,0,0,1-6.42-2.18l46.66-23.24,8,.32L185.41,292l-21.18,10.57a39.93,39.93,0,0,0,21.92-.52l9.09-5.14h0L221.48,282Z" transform="translate(-151.03 -281.1)"/><path class="cls-3" d="M229.32,505.72l-41.24,52.89q.61-126.25,1.22-252.52l41.92-23.7Q230.28,394.06,229.32,505.72Z" transform="translate(-151.03 -281.1)"/><path class="cls-4" d="M359.35,555.1a58.84,58.84,0,0,1-34,16.33l-134.68-247c5-2.26,10.4-4.94,16-8.13a192.25,192.25,0,0,0,16.86-10.78Z" transform="translate(-151.03 -281.1)"/><path class="cls-3" d="M393.83,523,359.36,555.1,223.51,305.54,262,283.43Z" transform="translate(-151.03 -281.1)"/><path class="cls-4" d="M395.93,577a41.87,41.87,0,0,1-23.06,1.7,41,41,0,0,1-14-5.9l7-260a50,50,0,0,0,37.79,2.54Q399.79,446.17,395.93,577Z" transform="translate(-151.03 -281.1)"/><path class="cls-2" d="M421.79,287.16l-18.13,28.16a53.74,53.74,0,0,1-6,1.53,53.17,53.17,0,0,1-13.15.92,49.45,49.45,0,0,1-18.62-5l20-26.1,9.46.12h0L379.7,308.23a25.79,25.79,0,0,0,18.48.1L412.51,287h0l3.9,0Z" transform="translate(-151.03 -281.1)"/><path class="cls-3" d="M417.52,519.24Q406.74,548.13,395.93,577q3.87-130.84,7.73-261.7l18.13-28.15Q419.66,403.19,417.52,519.24Z" transform="translate(-151.03 -281.1)"/></svg>